<svg xmlns="http://www.w3.org/2000/svg" viewBox="0 0 227.0 250.0" width="227.0" height="250.0"><g fill="#10304B" transform="translate(0, 0)"><g transform="translate(0.000000,250.000000) scale(0.100000,-0.100000)"><path d="M1294 2471 c-54 -39 -87 -77 -124 -140 -82 -140 -107 -304 -79 -521
l10 -85 -48 -40 c-152 -126 -267 -258 -322 -370 -166 -339 51 -716 429 -744
l85 -6 12 -70 c15 -88 16 -208 2 -258 -14 -53 -69 -111 -118 -126 -34 -10
-121 -6 -121 6 0 2 16 18 36 35 69 61 84 134 39 200 -69 102 -218 78 -269 -44
-31 -73 -16 -143 44 -212 56 -63 101 -81 205 -81 111 0 164 23 219 95 64 84
71 110 69 255 0 72 -6 152 -11 178 l-10 48 52 23 c111 51 188 135 221 241 22
74 19 183 -7 252 -44 118 -177 213 -298 213 -27 0 -51 4 -54 8 -2 4 -10 56
-17 115 l-12 107 50 53 c233 248 290 516 164 780 -38 79 -67 117 -90 117 -10
0 -36 -13 -57 -29z m76 -201 c50 -27 46 -145 -10 -263 -29 -62 -150 -207 -172
-207 -6 0 -9 42 -6 118 7 161 31 235 102 308 56 58 58 59 86 44z m-226 -880
c7 -44 10 -84 6 -88 -3 -4 -22 -16 -43 -26 -74 -38 -138 -131 -153 -223 -14
-87 31 -193 101 -242 47 -32 58 -27 35 17 -41 79 -43 167 -5 225 16 25 82 74
89 66 2 -2 8 -44 14 -94 6 -49 19 -148 28 -218 12 -94 14 -131 5 -140 -15 -15
-150 7 -202 34 -63 32 -126 95 -156 158 -25 50 -28 67 -28 161 0 102 1 107 39
180 21 41 57 95 79 120 47 52 170 160 176 154 2 -2 9 -40 15 -84z m204 -266
c171 -71 178 -312 12 -418 l-26 -16 -27 208 c-15 114 -27 215 -27 225 0 21 19
22 68 1z"/><path d="M890 2234 c-251 -53 -497 -212 -654 -422 -443 -589 -233 -1408 439
-1714 44 -20 90 -39 102 -43 l22 -6 -23 43 c-52 93 -53 204 -5 286 27 47 24
55 -23 79 -64 32 -168 123 -223 194 -245 324 -208 774 86 1055 99 94 235 170
344 192 l40 8 6 114 c4 63 12 133 18 155 19 67 16 75 -26 74 -21 0 -67 -7
-103 -15z"/><path d="M1580 2092 c0 -86 -6 -125 -36 -229 -5 -19 3 -28 54 -60 89 -56 185
-152 243 -243 l52 -80 188 0 c104 0 189 1 189 3 0 1 -9 26 -20 55 -98 258
-298 477 -553 605 -51 26 -98 47 -105 47 -9 0 -12 -28 -12 -98z"/><path d="M2050 762 l-175 -2 -25 -48 c-58 -110 -251 -271 -372 -311 -35 -12
-36 -13 -33 -54 10 -98 -33 -229 -98 -300 -34 -36 -34 -37 -11 -37 34 0 190
37 251 60 201 75 386 213 515 384 54 73 157 263 158 292 0 18 -21 19 -210 16z"/></g></g></svg>