<svg xmlns="http://www.w3.org/2000/svg" viewBox="0 0 441.0 57.0" width="441.0" height="57.0"><g fill="#10304B" transform="translate(0, 0)"><g transform="translate(0.000000,57.000000) scale(0.100000,-0.100000)"><path d="M217 556 c-147 -32 -236 -172 -207 -325 12 -63 38 -108 86 -150 45
-40 90 -58 173 -72 72 -11 181 2 201 26 14 16 30 104 20 110 -5 3 -17 -11 -29
-31 -70 -119 -286 -61 -338 90 -52 152 12 300 137 321 89 15 193 -30 202 -86
7 -43 20 -16 22 43 l1 62 -33 7 c-74 15 -179 18 -235 5z"/><path d="M778 544 c-9 -16 -40 -92 -71 -169 -118 -301 -141 -344 -181 -347
-12 0 17 -4 64 -8 85 -7 127 -1 80 10 -31 8 -31 31 0 113 l22 58 86 -3 87 -3
28 -70 c15 -38 26 -77 24 -86 -4 -14 6 -18 57 -22 85 -8 303 -4 312 5 4 5 -2
8 -14 8 -41 0 -50 34 -54 208 -3 89 -1 162 3 162 4 0 14 -9 22 -20 8 -12 90
-99 182 -195 147 -154 194 -195 195 -167 0 4 3 111 6 237 3 127 7 240 9 251 3
12 14 24 25 27 45 12 15 22 -70 24 -50 0 -90 -3 -90 -8 0 -5 8 -9 18 -9 44 -1
47 -11 52 -195 3 -96 2 -175 -2 -175 -3 0 -18 15 -33 33 -47 56 -347 357 -356
357 -5 0 -9 -37 -10 -82 -1 -46 -4 -161 -8 -256 -7 -188 -8 -192 -67 -192 -59
0 -75 27 -220 384 -26 65 -55 128 -65 139 -16 21 -16 21 -31 -9z m41 -221 l30
-83 -70 0 c-38 0 -69 1 -69 3 0 1 9 27 21 57 11 30 26 70 32 88 6 18 14 29 18
25 4 -5 21 -45 38 -90z"/><path d="M2780 560 c-99 -16 -158 -58 -201 -143 -95 -187 27 -390 247 -413 70
-8 166 10 187 34 16 18 30 105 20 116 -4 4 -14 -8 -23 -25 -25 -54 -62 -74
-133 -73 -140 2 -227 99 -227 254 0 56 5 81 25 120 29 58 52 75 119 90 97 21
216 -28 216 -89 0 -12 5 -21 10 -21 7 0 10 25 8 68 l-3 67 -65 11 c-74 13
-116 14 -180 4z"/><path d="M1736 528 c-3 -17 -6 -40 -6 -51 0 -18 2 -18 25 7 23 25 30 27 97 24
l73 -3 -3 -225 c-3 -224 -8 -250 -40 -250 -8 0 -13 -3 -9 -6 9 -10 207 -12
213 -3 3 5 -6 9 -20 9 -14 0 -30 8 -35 19 -6 10 -11 113 -11 237 l-2 219 54 3
c66 4 105 -10 118 -40 7 -20 9 -17 11 20 1 23 2 48 3 55 1 9 -52 12 -230 13
l-232 2 -6 -30z"/><path d="M2263 548 c-2 -5 5 -8 16 -8 11 0 25 -9 31 -19 11 -21 14 -419 4
-459 -4 -12 -17 -25 -31 -28 -42 -11 -17 -16 91 -19 101 -3 139 6 77 18 -18 4
-31 14 -35 29 -3 13 -6 117 -6 231 l0 208 25 25 c14 14 25 26 25 27 0 6 -193
1 -197 -5z"/><path d="M3090 548 c0 -4 9 -8 20 -8 33 0 40 -39 40 -213 0 -135 3 -169 19
-202 71 -158 316 -163 392 -9 22 45 24 64 27 219 4 171 10 205 37 205 8 0 15
3 15 8 0 4 -38 7 -85 7 -47 0 -85 -3 -85 -7 0 -5 7 -8 15 -8 8 0 22 -11 31
-25 14 -22 16 -47 11 -183 -7 -221 -29 -269 -128 -279 -56 -5 -106 20 -134 67
-17 30 -20 56 -24 198 -4 189 -1 207 35 216 15 4 24 10 20 13 -9 10 -206 10
-206 1z"/><path d="M3796 533 c-6 -31 -37 -247 -56 -386 -12 -87 -27 -117 -57 -117 -9 0
-13 -3 -10 -7 11 -10 167 -12 167 -2 0 5 -6 9 -14 9 -7 0 -19 7 -27 16 -10 13
-10 36 0 130 17 154 22 184 31 179 4 -3 44 -79 88 -170 45 -91 86 -165 92
-165 6 0 33 46 59 102 98 209 113 238 120 238 9 0 28 -127 37 -251 l7 -86 60
-7 c83 -8 107 -8 107 4 0 6 -8 10 -18 10 -37 0 -53 35 -72 162 -44 279 -50
324 -50 346 0 17 -5 23 -17 20 -19 -3 -22 -10 -137 -246 -38 -78 -72 -142 -75
-142 -4 0 -50 88 -104 195 -58 116 -103 195 -111 195 -8 0 -17 -12 -20 -27z"/></g></g></svg>